<svg id="Capa_1" data-name="Capa 1" xmlns="http://www.w3.org/2000/svg" viewBox="0 0 250 100"><defs><style>.cls-1{fill:none;stroke:#272f50;stroke-miterlimit:10;stroke-width:7.5px;}.cls-2{fill:#32859e;}</style></defs><path class="cls-1" d="M117.61,75.18a38.81,38.81,0,1,1,0-51.06"/><path class="cls-2" d="M87.49,46.53h-4a4.16,4.16,0,0,0-.91-2.43,2.68,2.68,0,0,0-2.09-.82,3.39,3.39,0,0,0-3.09,1.86,10,10,0,0,0-1.08,5,9.21,9.21,0,0,0,1,4.75,3.21,3.21,0,0,0,2.91,1.6,3.11,3.11,0,0,0,2.37-1A3.53,3.53,0,0,0,83.48,53h4.17a5.94,5.94,0,0,1-2,4.65,7.36,7.36,0,0,1-5.12,1.78A7.92,7.92,0,0,1,74.35,57a9.9,9.9,0,0,1-2.21-6.83,10.51,10.51,0,0,1,2.29-7.05,7.67,7.67,0,0,1,6.18-2.7A7.35,7.35,0,0,1,85.51,42,5.7,5.7,0,0,1,87.49,46.53Z"/><path class="cls-2" d="M93.84,40.43V59h-4V40.43Z"/><path class="cls-2" d="M104.17,40.48l5,13.85V40.48h4.47V59h-6.17l-5.62-14.56V59H97.29V40.48Z"/><path class="cls-2" d="M121.84,55.91h8.09V59h-8.82m1.23-11.38h6.71V51.2h-6.7m-1.23-10.72h8.52v3h-7.79"/><path class="cls-2" d="M151.86,46.22h-4a4.16,4.16,0,0,0-.91-2.43,2.68,2.68,0,0,0-2.09-.82,3.42,3.42,0,0,0-3.1,1.86,10,10,0,0,0-1.08,5,9.06,9.06,0,0,0,1,4.75,3.2,3.2,0,0,0,2.9,1.6,3.11,3.11,0,0,0,2.37-1,3.53,3.53,0,0,0,.93-2.51H152a5.94,5.94,0,0,1-2,4.65,7.36,7.36,0,0,1-5.12,1.78,7.87,7.87,0,0,1-6.2-2.47,9.85,9.85,0,0,1-2.21-6.83,10.56,10.56,0,0,1,2.28-7,7.7,7.7,0,0,1,6.19-2.7,7.31,7.31,0,0,1,4.89,1.65A5.67,5.67,0,0,1,151.86,46.22Z"/><path class="cls-2" d="M159.26,40.19v15h7.2v3.5h-12V40.19Z"/><path class="cls-2" d="M172.76,40.22V51.69a4.92,4.92,0,0,0,.91,3.34,4.12,4.12,0,0,0,3.16,1,4.77,4.77,0,0,0,2.32-.5,3.11,3.11,0,0,0,1.36-1.35,5.4,5.4,0,0,0,.43-2.42V40.22h3.88V51.87a6.63,6.63,0,0,1-2.21,5.22A8.43,8.43,0,0,1,176.83,59a8.85,8.85,0,0,1-5.94-1.82A6.53,6.53,0,0,1,168.78,52V40.22Z"/><path class="cls-2" d="M195.48,40.19a12.55,12.55,0,0,1,3.62.42,4.09,4.09,0,0,1,2.19,1.64,4.67,4.67,0,0,1,.85,2.76,3.81,3.81,0,0,1-.85,2.53A4.87,4.87,0,0,1,199,49v0a4.69,4.69,0,0,1,2.84,1.52,4.38,4.38,0,0,1,1.07,3,4.67,4.67,0,0,1-.79,2.71,5.1,5.1,0,0,1-2.18,1.77,11.62,11.62,0,0,1-4.4.62h-6.92V40.19Zm-.2,7.53a3.69,3.69,0,0,0,2.35-.59,2.19,2.19,0,0,0,.7-1.79,2.16,2.16,0,0,0-.66-1.72,3.44,3.44,0,0,0-2.24-.58h-3.05v4.68Zm0,8a7.34,7.34,0,0,0,2.21-.24,2.11,2.11,0,0,0,1.09-.75,2.54,2.54,0,0,0,.38-1.49,2.37,2.37,0,0,0-.82-2,5.83,5.83,0,0,0-3.28-.64h-2.46v5.12Z"/><path class="cls-1" d="M109,68a28,28,0,1,1,0-36.76"/></svg>